<svg width="319.000000" height="133.268066" viewBox="0 0 319 133.268" fill="none" xmlns="http://www.w3.org/2000/svg" xmlns:xlink="http://www.w3.org/1999/xlink">
	<desc>
			Created with Pixso.
	</desc>
	<defs>
		<clipPath id="clip17_68">
			<rect id="stadia logo" width="58.000000" height="50.268284" transform="translate(3.000000 83.000000)" fill="white" fill-opacity="0"/>
		</clipPath>
		<clipPath id="clip17_35">
			<rect id="Playstation logo" width="168.000000" height="35.187801" transform="translate(141.000000 91.000000)" fill="white" fill-opacity="0"/>
		</clipPath>
		<clipPath id="clip15_59">
			<rect id="xbox-one-3 logo" width="178.000000" height="35.187801" transform="translate(141.000000 0.285156)" fill="white" fill-opacity="0"/>
		</clipPath>
	</defs>
	<rect id="stadia logo" width="58.000000" height="50.268284" transform="translate(3.000000 83.000000)" fill="#FFFFFF" fill-opacity="0"/>
	<g clip-path="url(#clip17_68)">
		<path id="Fill-1" d="M11.9132 91.1982C11.6934 91.3604 11.5708 91.6177 11.5698 91.8823L11.5698 91.8931C11.5708 92.0049 11.5931 92.1177 11.6394 92.2256L15.5503 101.365C15.7235 101.77 16.1705 101.968 16.5757 101.82C19.1362 100.878 28.0034 97.8984 33.7419 99.5059C33.7419 99.5059 27.9855 99.8491 22.7802 104.06C22.4868 104.297 22.389 104.711 22.5393 105.062C22.962 106.047 23.8104 108.027 24.2905 109.146L24.9647 110.778C25.1252 111.165 25.6379 111.211 25.8641 110.861C27.0787 108.974 29.1266 108.032 31.0938 107.209C33.109 106.367 35.2119 105.739 37.3571 105.365C39.6428 104.966 41.9767 104.859 44.2867 105.07C44.6715 105.105 45.0286 104.862 45.1434 104.482L46.9102 98.6582C47.0142 98.3135 46.8945 97.937 46.6105 97.7251C44.6404 96.2534 36.8365 91.3086 23.1134 93.2949C23.1134 93.2949 34.8237 86.3564 49.6906 93.9785C50.141 94.21 50.6848 93.9668 50.8351 93.4731L52.3927 88.3369C52.417 88.2573 52.4287 88.1768 52.4302 88.0972L52.4302 88.0728C52.4258 87.7803 52.274 87.5029 52.0162 87.3521C50.1503 86.2632 43.8329 83 35.1428 83C28.4821 82.9995 20.4282 84.916 11.9132 91.1982Z" fill="#FBF503" fill-opacity="1.000000" fill-rule="evenodd"/>
		<path id="Shape" d="M19.4225 133.255L18.0117 133.255C17.9052 133.255 17.803 133.211 17.7277 133.133C17.6522 133.056 17.61 132.95 17.61 132.84L17.61 124.409L14.1542 124.409C13.933 124.408 13.7542 124.222 13.7542 123.994L13.7542 122.688C13.7542 122.458 13.9341 122.273 14.1559 122.273L23.2806 122.273C23.5026 122.273 23.6824 122.458 23.6824 122.688L23.6824 123.994C23.6824 124.223 23.5026 124.409 23.2806 124.409L19.8242 124.409L19.8242 132.84C19.8242 132.95 19.7819 133.056 19.7065 133.133C19.6312 133.211 19.5291 133.255 19.4225 133.255ZM12.8274 132.458C13.3445 131.923 13.556 131.244 13.556 130.113L13.556 129.825C13.556 128.692 13.3445 128.015 12.8274 127.479C12.2794 126.912 11.5532 126.681 10.3231 126.681L5.85645 126.681C5.67883 126.681 5.50854 126.608 5.38293 126.479C5.25732 126.349 5.18689 126.172 5.18713 125.989L5.18713 125.101C5.18713 124.719 5.48682 124.409 5.85645 124.409L12.251 124.409C12.4729 124.409 12.6527 124.223 12.6527 123.994L12.6527 122.688C12.6527 122.458 12.4729 122.273 12.251 122.273L6.23291 122.273C5.0022 122.273 4.27661 122.504 3.72803 123.07C3.21082 123.605 3 124.285 3 125.416L3 125.643C3 126.777 3.21082 127.455 3.72803 127.989C4.27661 128.556 5.0022 128.787 6.23291 128.787L10.7158 128.787C11.0856 128.787 11.3855 129.096 11.3859 129.479L11.3859 130.427C11.3859 130.809 11.0858 131.119 10.7158 131.119L3.9812 131.119C3.75928 131.119 3.57935 131.305 3.57935 131.534L3.57935 132.84C3.57935 132.95 3.6217 133.056 3.69702 133.133C3.77246 133.211 3.87463 133.255 3.9812 133.255L10.325 133.255C11.5538 133.255 12.2794 133.024 12.8274 132.458ZM44.7479 127.733L44.7479 127.809C44.7479 129.925 44.4235 131.01 43.507 131.957C42.6611 132.831 41.402 133.268 39.7562 133.268L34.8892 133.268C34.6672 133.268 34.4873 133.083 34.4873 132.853L34.4873 122.688C34.4873 122.458 34.6672 122.273 34.8892 122.273L39.7581 122.273C41.4038 122.273 42.6653 122.715 43.5088 123.583C44.4253 124.53 44.7479 125.618 44.7479 127.733ZM42.5342 127.733C42.5342 126.325 42.4479 125.648 41.9131 125.096C41.4757 124.644 40.7706 124.424 39.7562 124.424L36.7017 124.424L36.7017 131.119L39.7581 131.119C40.7725 131.119 41.4781 130.899 41.9149 130.447C42.4497 129.896 42.536 129.217 42.536 127.809L42.5342 127.733ZM48.3391 132.84L48.3391 122.688C48.3391 122.458 48.1592 122.273 47.9373 122.273L46.5283 122.273C46.3065 122.273 46.1266 122.458 46.1266 122.688L46.1266 132.84C46.1266 133.069 46.3065 133.255 46.5283 133.255L47.9391 133.255C48.0457 133.255 48.1478 133.211 48.2231 133.133C48.2986 133.056 48.3408 132.95 48.3408 132.84L48.3391 132.84ZM33.1902 133.255L31.6979 133.255C31.4885 133.255 31.2985 133.129 31.2109 132.932L30.5247 131.396L24.9862 131.396L24.2987 132.933C24.2117 133.128 24.0232 133.253 23.8153 133.254L22.3158 133.254C22.1776 133.254 22.0491 133.181 21.9755 133.061C21.9019 132.939 21.8934 132.788 21.9532 132.66L26.4845 122.911C26.7213 122.41 27.2137 122.093 27.7533 122.093C28.2928 122.093 28.7853 122.41 29.0221 122.911L33.5533 132.658C33.6139 132.787 33.6061 132.939 33.5327 133.06C33.4592 133.181 33.3304 133.255 33.192 133.255L33.1902 133.255ZM25.8906 129.363L29.6226 129.363L27.7605 124.976L25.8906 129.363ZM60.5977 133.255L59.1023 133.255C58.8928 133.255 58.7026 133.129 58.6154 132.932L57.9302 131.396L52.3918 131.396L51.7048 132.933C51.6174 133.127 51.4293 133.253 51.2216 133.254L49.722 133.254C49.5839 133.254 49.4552 133.181 49.3816 133.061C49.308 132.939 49.2997 132.788 49.3595 132.66L53.8907 122.911C54.1272 122.41 54.6198 122.092 55.1595 122.092C55.6993 122.092 56.1918 122.41 56.4282 122.911L60.9595 132.658C61.0201 132.787 61.0123 132.939 60.9387 133.061C60.8651 133.182 60.7362 133.255 60.5977 133.255L60.5977 133.255ZM53.2963 129.363L57.0282 129.363L55.1667 124.976L53.2963 129.363Z" fill="#FBF503" fill-opacity="1.000000" fill-rule="nonzero"/>
	</g>
	<rect id="Frame 13" width="62.000000" height="35.187801" fill="#FFFFFF" fill-opacity="0"/>
	<path id="PC" d="M36.5563 32.5044C38.3312 33.5029 40.377 34.002 42.6934 34.002L47.5669 34.002C49.8533 34.002 51.8689 33.5029 53.6138 32.5044Q54.6863 31.8716 55.5618 31.0337Q56.8228 29.8262 57.6752 28.1919C58.6378 26.3159 59.1191 24.1523 59.1191 21.7012L52.9821 21.7012C52.9821 23.729 52.4706 25.3628 51.4478 26.6035C50.455 27.8442 49.1614 28.4644 47.5669 28.4644L42.6934 28.4644C41.0688 28.4644 39.7601 27.8442 38.7675 26.6035Q38.7444 26.5737 38.7217 26.5439Q37.2783 24.6499 37.2783 21.6558L37.2783 13.8491Q37.2783 10.936 38.686 9.10547Q38.7479 9.02539 38.8125 8.94678Q39.5137 8.07568 40.422 7.60254Q41.5016 7.04053 42.8739 7.04053L47.6572 7.04053Q49.0243 7.04053 50.0851 7.61035Q50.8451 8.01904 51.4478 8.71973C52.4105 9.80908 52.8918 11.2617 52.8918 13.0771L59.0289 13.0771Q59.0289 9.62793 57.5848 7.04053C56.6523 5.28564 55.3286 3.92383 53.6138 2.95557C51.899 1.9873 49.9135 1.50293 47.6572 1.50293L42.8739 1.50293C40.5273 1.50293 38.4515 2.00244 36.6465 3.00098Q35.5608 3.61182 34.67 4.43408Q33.3768 5.62793 32.4949 7.26758C31.5322 9.08301 31.0509 11.186 31.0509 13.5767L31.0509 21.9282C31.0509 24.3188 31.5322 26.437 32.4949 28.2827C33.4576 30.0986 34.8114 31.5054 36.5563 32.5044ZM19.1674 1.86621L2.51587 1.86621L2.51587 33.6387L8.74329 33.6387L8.74329 23.6079L18.8063 23.6079C20.7317 23.6079 22.4164 23.2446 23.8604 22.5186Q25.4159 21.7202 26.4801 20.4951Q26.9287 19.9785 27.2899 19.3867Q27.4756 19.0752 27.6329 18.7505Q28.5083 16.9429 28.5083 14.7114L28.5083 10.4902C28.5083 8.79541 28.1173 7.29785 27.3351 5.99658C26.5529 4.66504 25.4548 3.65137 24.0409 2.95557Q21.9199 1.86621 19.1674 1.86621ZM21.2882 17.1626C20.6263 17.8281 19.7689 18.1611 18.7161 18.1611L8.74329 18.1611L8.74329 7.31299L19.077 7.31299C20.0398 7.31299 20.8069 7.63037 21.3784 8.26611Q21.5172 8.40576 21.6346 8.56104Q22.281 9.41797 22.281 10.7622L22.281 14.439Q22.281 15.729 21.6953 16.644Q21.5184 16.9204 21.2882 17.1626Z" fill="#FBF503" fill-opacity="1.000000" fill-rule="evenodd"/>
	<rect id="Playstation logo" width="168.000000" height="35.187801" transform="translate(141.000000 91.000000)" fill="#FFFFFF" fill-opacity="0"/>
	<g clip-path="url(#clip17_35)">
		<rect id="Rectangle" x="140.690308" y="91.058105" width="168.626678" height="35.324333" fill="url(#pattern_17_360)" fill-opacity="1.000000"/>
		<path id="Vector" d="M305.16 120.706L305.488 120.706L305.488 118.55L306.263 118.55L306.263 118.271L304.384 118.271L304.384 118.55L305.16 118.55L305.16 120.706Z" fill="#FBF503" fill-opacity="1.000000" fill-rule="nonzero"/>
		<path id="Vector" d="M306.892 118.728L307.545 120.706L307.869 120.706L308.521 118.728L308.521 120.706L308.792 120.706L308.792 118.271L308.397 118.271L307.718 120.35L307.016 118.271L306.565 118.271L306.565 120.706L306.892 120.706L306.892 118.728Z" fill="#FBF503" fill-opacity="1.000000" fill-rule="nonzero"/>
		<path id="Vector" d="M253.027 114.874L253.027 104.809C253.027 102.755 253.98 101.285 256.013 101.285L268.556 101.285C268.632 101.285 268.706 101.208 268.706 101.133L268.706 99.1304C268.706 99.1128 268.701 99.0957 268.695 99.0791L253.359 99.0791C250.035 99.5039 248.411 101.833 248.411 104.809L248.411 114.874C248.411 116.927 247.431 118.397 245.425 118.397L232.179 118.397C232.104 118.397 232.029 118.448 232.029 118.549L232.029 120.552C232.029 120.635 232.079 120.699 232.139 120.72L247.178 120.72C251.097 120.617 253.027 118.101 253.027 114.874Z" fill="#FBF503" fill-opacity="1.000000" fill-rule="nonzero"/>
		<path id="Vector" d="M201.498 120.72L205.902 120.72C205.962 120.699 206.012 120.635 206.012 120.553L206.012 114.138C206.012 112.085 207.166 110.665 208.847 110.665L226.986 110.665C231.076 110.665 233.058 108.13 233.058 104.809C233.058 101.833 231.436 99.5039 228.11 99.0791L201.417 99.0791C201.409 99.0957 201.396 99.1089 201.396 99.1304L201.396 101.133C201.396 101.234 201.446 101.285 201.546 101.285L225.456 101.285C227.488 101.285 228.441 102.755 228.441 104.809C228.441 106.862 227.488 108.333 225.456 108.333L206.539 108.333C203.604 108.333 201.396 110.843 201.396 114.138L201.396 120.553C201.396 120.635 201.431 120.699 201.498 120.72Z" fill="#FBF503" fill-opacity="1.000000" fill-rule="nonzero"/>
		<path id="Vector" d="M268.633 118.398L292.718 118.398C292.792 118.398 292.842 118.448 292.842 118.499L292.842 120.553C292.842 120.654 292.919 120.705 292.993 120.705L297.334 120.705C297.411 120.705 297.484 120.654 297.484 120.553L297.484 118.55C297.484 118.474 297.561 118.398 297.635 118.398L301.949 118.398C302.05 118.398 302.1 118.321 302.1 118.246L302.1 116.217C302.1 116.141 302.05 116.065 301.949 116.065L297.635 116.065C297.561 116.065 297.484 115.989 297.484 115.914L297.484 101.285C297.484 100.091 297.043 99.3311 296.301 99.0791L295.045 99.0791C294.653 99.1802 294.228 99.3613 293.771 99.6367L267.83 115.736C266.827 116.369 266.475 117.079 266.726 117.611C266.927 118.068 267.502 118.398 268.633 118.398ZM272.396 115.71L292.491 103.212C292.618 103.11 292.869 103.136 292.869 103.415L292.869 115.914C292.869 115.99 292.792 116.065 292.718 116.065L272.52 116.065C272.346 116.065 272.269 116.016 272.245 115.964C272.218 115.862 272.268 115.787 272.396 115.71Z" fill="#FBF503" fill-opacity="1.000000" fill-rule="nonzero"/>
		<path id="Vector" d="M157.827 91C159.784 91.3667 161.707 91.8906 163.621 92.4365C164.716 92.7563 165.808 93.0869 166.893 93.439C168.598 93.9849 170.295 94.6025 171.838 95.5239C172.53 95.9458 173.194 96.4229 173.761 97.0044C174.376 97.6084 174.88 98.3252 175.249 99.1045C175.922 100.518 176.153 102.096 176.221 103.648C176.253 104.661 176.251 105.682 176.063 106.682C175.906 107.55 175.628 108.407 175.166 109.162C174.758 109.828 174.19 110.404 173.502 110.775C172.841 111.134 172.085 111.304 171.335 111.289C170.199 111.301 169.096 110.937 168.076 110.459C168.058 107.05 168.073 103.64 168.068 100.232C168.061 99.6152 168.103 98.9917 167.979 98.3833C167.892 97.9121 167.701 97.437 167.332 97.1167C167.089 96.8955 166.772 96.7705 166.454 96.7031C166.132 96.6416 165.789 96.7793 165.59 97.0386C165.259 97.4541 165.172 98.0063 165.157 98.5239C165.154 107.65 165.16 116.778 165.154 125.904C162.712 125.125 160.269 124.347 157.827 123.566C157.824 112.711 157.825 101.855 157.827 91Z" fill="#FBF503" fill-opacity="1.000000" fill-rule="nonzero"/>
		<path id="Vector" d="M146.848 114.096C150.032 112.963 153.213 111.818 156.399 110.689C156.404 111.945 156.399 113.203 156.401 114.46C156.399 114.631 156.41 114.802 156.389 114.972C153.871 115.869 151.357 116.782 148.842 117.685C148.493 117.817 148.135 117.967 147.867 118.235C147.741 118.36 147.639 118.546 147.708 118.726C147.794 118.938 148.009 119.053 148.207 119.14C148.759 119.366 149.363 119.398 149.95 119.425C150.606 119.415 151.264 119.365 151.906 119.223C152.34 119.137 152.757 118.99 153.171 118.834C154.246 118.443 155.321 118.049 156.398 117.662C156.405 118.725 156.399 119.789 156.401 120.854C156.398 121.066 156.411 121.28 156.39 121.491C155.067 121.73 153.729 121.892 152.386 121.914C149.68 121.975 146.967 121.554 144.397 120.704C143.554 120.458 142.716 120.131 142.012 119.593C141.624 119.292 141.278 118.913 141.101 118.446C140.953 118.051 140.964 117.595 141.148 117.214C141.326 116.833 141.636 116.533 141.977 116.299C142.767 115.751 143.638 115.333 144.521 114.96C145.282 114.634 146.071 114.38 146.848 114.096Z" fill="#FBF503" fill-opacity="1.000000" fill-rule="nonzero"/>
		<path id="Vector" d="M172.471 112.665C173.193 112.581 173.92 112.561 174.646 112.535C177.034 112.544 179.435 112.842 181.72 113.563C182.169 113.7 182.603 113.877 183.05 114.02C183.846 114.312 184.643 114.667 185.28 115.243C185.663 115.594 185.994 116.067 185.998 116.606C186.021 117.046 185.823 117.468 185.539 117.792C184.999 118.401 184.286 118.819 183.569 119.184C182.807 119.575 181.987 119.827 181.187 120.124C176.306 121.886 171.424 123.647 166.544 125.411C166.543 124.037 166.546 122.663 166.543 121.29C166.551 121.234 166.521 121.139 166.598 121.124C170.312 119.796 174.025 118.464 177.738 117.132C178.24 116.943 178.781 116.807 179.207 116.465C179.381 116.327 179.552 116.108 179.467 115.872C179.377 115.665 179.164 115.551 178.968 115.465C178.412 115.244 177.807 115.201 177.216 115.185C176.29 115.191 175.356 115.306 174.476 115.604C171.831 116.536 169.19 117.479 166.544 118.408C166.545 116.932 166.543 115.457 166.545 113.982C168.459 113.307 170.458 112.897 172.471 112.665Z" fill="#FBF503" fill-opacity="1.000000" fill-rule="nonzero"/>
		<path id="Vector" d="M183.321 122.83C183.899 122.758 184.502 123.019 184.848 123.489C185.226 123.975 185.295 124.675 185.028 125.23C184.759 125.805 184.143 126.208 183.505 126.188C182.918 126.201 182.35 125.857 182.061 125.348C181.8 124.9 181.768 124.327 181.97 123.85C182.198 123.299 182.733 122.897 183.321 122.83ZM183.196 123.141C182.872 123.214 182.579 123.412 182.386 123.682C182.154 124.001 182.066 124.422 182.154 124.808C182.228 125.167 182.453 125.487 182.758 125.685C183.227 125.994 183.884 125.977 184.332 125.637C184.795 125.309 185.015 124.678 184.855 124.132C184.757 123.762 184.495 123.448 184.164 123.265C183.87 123.108 183.519 123.063 183.196 123.141Z" fill="#FBF503" fill-opacity="1.000000" fill-rule="nonzero"/>
		<path id="Vector" d="M182.796 123.536C183.097 123.534 183.399 123.535 183.7 123.535C183.87 123.537 184.058 123.577 184.179 123.708C184.3 123.846 184.31 124.047 184.277 124.22C184.258 124.334 184.158 124.401 184.085 124.481C184.148 124.537 184.229 124.59 184.244 124.681C184.279 124.856 184.242 125.04 184.298 125.211C184.333 125.271 184.369 125.333 184.371 125.405C184.246 125.409 184.122 125.406 183.997 125.408C183.913 125.209 183.976 124.985 183.923 124.78C183.902 124.696 183.816 124.645 183.734 124.647C183.531 124.639 183.326 124.645 183.123 124.645C183.12 124.899 183.13 125.154 183.117 125.408C183.011 125.406 182.904 125.406 182.798 125.409C182.792 124.783 182.796 124.16 182.796 123.536ZM183.122 123.833C183.123 124.005 183.123 124.177 183.122 124.35C183.304 124.351 183.487 124.353 183.67 124.351C183.76 124.35 183.865 124.333 183.924 124.255C183.986 124.157 183.985 124.026 183.929 123.927C183.882 123.848 183.783 123.84 183.701 123.835C183.508 123.829 183.315 123.833 183.122 123.833Z" fill="#FBF503" fill-opacity="1.000000" fill-rule="nonzero"/>
	</g>
	<rect id="xbox-one-3 logo" width="178.000000" height="35.187801" transform="translate(141.000000 0.285156)" fill="#FFFFFF" fill-opacity="0"/>
	<g clip-path="url(#clip15_59)">
		<path id="Vector" d="M254.88 28.71L248.086 19.5586L241.299 28.71L238.503 28.71L246.671 17.6533L239.211 7.60303L242.007 7.60303L248.086 15.7998L254.164 7.60303L256.958 7.60303L249.504 17.6514L257.674 28.71L254.88 28.71ZM201.936 28.7061L193.758 17.6514L201.218 7.60303L198.422 7.60303L192.342 15.8018L186.267 7.60303L183.478 7.60303L190.934 17.6514L182.759 28.7061L185.559 28.7061L192.345 19.5586L199.138 28.7061L201.936 28.7061Z" fill="#FBF503" fill-opacity="1.000000" fill-rule="nonzero"/>
		<path id="Vector" d="M217.484 18.4507C217.062 18.0942 216.593 17.7979 216.089 17.5703C216.862 17.1626 217.509 16.5537 217.959 15.8091C218.41 15.0645 218.648 14.2119 218.647 13.3433C218.647 11.9927 218.145 7.60107 211.733 7.60107L203.097 7.60107L203.097 16.7007L200.221 16.7007C199.848 17.1836 199 18.3433 198.677 18.8188L203.097 18.8188L203.097 28.7061L211.735 28.708C216.414 28.708 219.32 26.3516 219.32 22.5464C219.32 20.8853 218.688 19.4736 217.484 18.4507ZM205.485 9.80469L211.735 9.80469C213.426 9.80469 216.259 10.2227 216.259 13.1582C216.259 15.3779 214.609 16.7007 211.735 16.7007L205.485 16.7007L205.485 9.80469ZM211.733 26.5068L205.483 26.5068L205.483 18.8242L211.733 18.8242C214.102 18.8242 216.938 19.4736 216.938 22.5C216.938 25.9849 213.677 26.5068 211.733 26.5068ZM230.554 7.1167C224.58 7.1167 220.405 11.6504 220.405 18.1436C220.405 24.646 224.58 29.1763 230.554 29.1763C236.523 29.1763 240.687 24.646 240.687 18.1436C240.687 11.6504 236.523 7.1167 230.554 7.1167ZM230.554 26.9434C226.002 26.9434 222.813 23.3232 222.813 18.1436C222.813 12.9639 226.002 9.3457 230.554 9.3457C235.099 9.3457 238.27 12.9639 238.27 18.1436C238.27 23.3232 235.099 26.9434 230.554 26.9434ZM146.296 5.34473L146.28 5.35938L146.28 5.36133C144.607 6.99561 143.279 8.94434 142.374 11.0933C141.468 13.2427 141.003 15.5493 141.006 17.8789C141.001 21.73 142.275 25.4756 144.63 28.5361C144.654 28.5654 144.691 28.582 144.725 28.5654C144.757 28.5474 144.759 28.5083 144.745 28.4751C143.394 24.3276 150.302 14.2754 153.872 10.0615C153.883 10.0469 153.898 10.0303 153.898 10.0098C153.898 9.98584 153.881 9.96729 153.864 9.95264C147.86 4.02197 146.257 5.37793 146.28 5.35938L146.296 5.34473ZM171.174 5.34473L171.191 5.35938L171.191 5.36133C172.863 6.99561 174.191 8.94434 175.096 11.0938C176.001 13.2427 176.465 15.5498 176.462 17.8789C176.467 21.73 175.194 25.4756 172.838 28.5361C172.816 28.5654 172.777 28.582 172.743 28.5654C172.713 28.5474 172.712 28.5083 172.723 28.4751C174.074 24.3276 167.172 14.2681 163.604 10.0522C163.591 10.0376 163.578 10.021 163.578 10.0024C163.578 9.97656 163.593 9.95801 163.611 9.94336C169.617 4.0127 171.209 5.37793 171.189 5.35938L171.174 5.34473ZM158.735 0.285156C162.312 0.285156 165.255 1.2583 167.969 2.86035C168.003 2.87695 168.012 2.91357 167.999 2.94727C167.986 2.97852 167.949 2.98584 167.914 2.97656C164.482 2.24023 159.264 5.18359 158.772 5.47754C158.761 5.48486 158.75 5.49268 158.735 5.49268C158.718 5.49268 158.707 5.48486 158.696 5.47754C157.387 4.73242 152.565 2.22363 149.529 2.99512C149.495 3.00244 149.458 2.99707 149.443 2.96387C149.437 2.94824 149.436 2.93066 149.442 2.91455C149.447 2.89893 149.458 2.88525 149.473 2.87695C152.187 1.2583 155.167 0.285156 158.735 0.285156ZM158.735 14.396C158.755 14.396 158.778 14.4126 158.791 14.4233C164.096 18.4268 173.176 28.3232 170.404 31.1221L170.408 31.1182L170.406 31.1221L170.402 31.1221C167.175 33.9331 163.027 35.4805 158.733 35.4746C154.439 35.48 150.29 33.9326 147.062 31.1221L147.059 31.1182L147.062 31.1221C144.296 28.3232 153.374 18.4268 158.674 14.4233C158.688 14.4126 158.713 14.396 158.735 14.396ZM298.948 7.60303L298.948 24.9233L286.091 7.59033L283.983 7.58643L283.983 28.6748L286.35 28.6748L286.35 11.7378L298.944 28.6875L301.317 28.6914L301.317 7.60303L298.948 7.60303ZM271.693 7.11279C265.719 7.11279 261.542 11.6489 261.542 18.1396C261.542 24.6421 265.719 29.1797 271.693 29.1797C277.662 29.1797 281.826 24.6421 281.826 18.1396C281.826 11.6504 277.662 7.11279 271.693 7.11279ZM271.693 26.9434C267.141 26.9434 263.952 23.3232 263.952 18.1396C263.952 12.9624 267.141 9.3418 271.693 9.3418C276.238 9.3418 279.409 12.9624 279.409 18.1396C279.409 23.3232 276.238 26.9434 271.693 26.9434ZM306.355 26.627L306.355 18.8242L318.056 18.8242L318.056 16.7598L306.355 16.7598L306.355 9.65088L318.85 9.65088L318.85 7.58838L303.975 7.58838L303.975 28.6914L318.997 28.6914L318.997 26.627L306.355 26.627Z" fill="#FBF503" fill-opacity="1.000000" fill-rule="nonzero"/>
	</g>
</svg>
