<svg width="132.000000" height="132.000000" viewBox="0 0 132 132" fill="none" xmlns="http://www.w3.org/2000/svg" xmlns:xlink="http://www.w3.org/1999/xlink">
	<desc>
			Created with Pixso.
	</desc>
	<defs/>
	<path d="M117.36 48.4629L119.4 25.2686L97.74 20.1143L86.4 0L66 9.17712L45.6 0L34.26 20.0515L12.6 25.1428L14.64 48.3999L0 66L14.64 83.5371L12.6 106.794L34.26 111.948L45.6 132L66 122.76L86.4 131.937L97.74 111.886L119.4 106.731L117.36 83.5371L132 66L117.36 48.4629ZM126.789 66L113.231 49.7581L113.375 48.1123L115.113 28.3601L95.1139 23.6011L84.7096 5.14661L66 13.5632L47.2859 5.14453L36.8798 23.5447L16.8874 28.2441L18.7686 49.6914L5.20676 65.9954L18.769 82.2415L16.8865 103.703L36.883 108.461L47.2813 126.847L65.9944 118.371L84.7141 126.793L95.117 108.398L115.113 103.64L113.231 82.2419L126.789 66Z" fill="#F8F200" fill-opacity="1.000000" fill-rule="evenodd"/>
	<path d="M54.3031 90.0853L48.4716 84.2537Q44.9706 80.7527 41.4696 84.2537L36.0627 89.6606L38.3932 91.9911L43.8001 86.5843Q44.9706 85.4138 46.1203 86.5635L46.141 86.5843L42.0651 90.6601Q39.139 93.5863 42.003 96.4503Q44.9706 99.4178 47.8967 96.4917L54.3031 90.0853ZM44.3802 94.156Q43.8053 93.5811 44.3957 92.9907L48.4716 88.9148L49.6368 90.0801L45.561 94.156Q44.9706 94.7464 44.3802 94.156ZM66.0802 78.3082L62.7449 81.6435L55.5772 81.8092L54.4119 82.9745L57.9129 86.4755L55.5772 88.8112L46.2446 79.4787L48.5803 77.1429L52.0813 80.6439L53.2466 79.4787L53.4382 72.285L56.7476 68.9756L56.6389 78.417L66.0802 78.3082ZM64.3835 61.3397L71.3804 68.3365L67.8794 71.8376Q66.7141 73.0028 65.5488 71.8376L59.7173 66.006L57.3815 68.3417L63.2131 74.1733Q66.7141 77.6743 70.2151 74.1733L74.8814 69.507L77.2171 71.8427L79.6564 69.4034L74.985 64.732L73.7109 66.006L66.7141 59.0092L64.3835 61.3397ZM87.2897 57.0987L84.9591 59.4293L83.9596 58.4297Q83.3692 61.4439 81.6704 63.1426Q78.1694 66.6436 74.6684 63.1426L68.6245 57.0987L70.9603 54.763L77.0042 60.8069Q78.1487 61.9515 79.3347 60.8069Q81.3701 58.1811 80.6087 55.0789L75.6265 50.0967L77.9571 47.7662L87.2897 57.0987ZM82.1987 49.4597Q79.2311 46.4921 82.1573 43.566L88.5637 37.1596L97.8963 46.4921L95.5657 48.8227L92.0647 45.3217L91.0237 46.3627L91.5986 52.7898L88.5637 55.8247L87.9888 49.3975Q85.0627 52.3237 82.1987 49.4597ZM88.5637 41.8207L84.4878 45.8965Q83.8974 46.4869 84.5344 47.124Q85.0679 47.6574 85.6583 47.067L89.7341 42.9911L88.5637 41.8207Z" fill="#F8F200" fill-opacity="1.000000" fill-rule="evenodd"/>
</svg>
